<svg width="400" height="79" viewBox="0 0 800 158" xmlns="http://www.w3.org/2000/svg" fill-rule="evenodd" clip-rule="evenodd">
  <path d="M110.963 0c4.511 0 8.171 3.659 8.171 8.167v130.273c0 4.508-3.66 8.167-8.171 8.167h-102.793c-4.511 0-8.17-3.659-8.17-8.167v-100.14l38.307-38.3h72.656z" fill="url(#a)" />
  <path d="M38.307 30.133c-.003 4.508-3.663 8.167-8.174 8.167h-30.133l38.307-38.3-.003 30.133h.003z" fill="url(#b)" />
  <path fill="#9ae6ff" d="M674.799 113.457h124.656v16.463h-124.656z" />
  <path d="M52.846 147.054l-19.824 9.911c-.636.298-.88.324-1.318.344-1.78.083-3.389-1.226-3.442-3.286v-23.131c.016-.632.082-.823.217-1.175.475-1.242 1.482-2.064 3.053-2.114l.172.003c.458.033.901.148 1.318.344l19.824 9.911c.49-1.259 1.715-2.153 3.147-2.153h6.75c1.495 0 2.765.974 3.207 2.323l20.161-10.081c.637-.298.881-.323 1.319-.344 1.78-.082 3.388 1.227 3.442 3.286v23.131c-.016.633-.082.823-.217 1.175-.475 1.243-1.482 2.065-3.053 2.115l-.172-.004c-.459-.033-.901-.148-1.319-.343l-20.161-10.081c-.442 1.348-1.712 2.323-3.207 2.323h-6.75c-1.433 0-2.658-.894-3.147-2.154zm707.373-17.134h-17.377v-77.027h17.377v4.815c3.559-4.187 8.479-6.28 14.864-6.28 7.014 0 12.772 2.617 17.482 7.955 4.711 5.234 7.118 11.829 7.118 19.68 0 7.851-2.407 14.446-7.118 19.785-4.71 5.234-10.468 7.851-17.482 7.851-6.385 0-11.305-2.093-14.864-6.281v29.502zm-684.226-39.743c1.051.119 1.042.296 1.365.597 1.869 1.741.468 5.683-1.412 8.51-6.626 9.965-25.702 10.874-32.587-.483-1.144-1.888-1.794-4.074-1.821-6.282 0 0 .253-2.274 2.249-2.348h32.038l.168.006zm617.544-58.22v47.42c0 6.177 3.455 9.212 10.259 9.212s10.259-3.035 10.259-9.212v-47.42h18.737v49.2c0 7.746-2.721 13.923-8.165 18.633-5.338 4.711-12.352 7.014-20.831 7.014s-15.493-2.303-20.936-7.014c-5.339-4.71-8.061-10.887-8.061-18.633v-49.2h18.738zm-128.757 53.492c.523-1.989.732-4.187.732-6.49 0-7.851-2.512-14.446-7.641-19.68-5.13-5.234-11.515-7.851-19.366-7.851-8.061 0-14.76 2.617-19.994 7.955-5.234 5.339-7.851 11.934-7.851 19.785 0 7.956 2.617 14.551 7.955 19.785 5.339 5.129 12.457 7.746 21.355 7.746 9.84 0 17.377-3.245 22.507-9.735l-12.562-8.793c-2.617 2.407-5.758 3.663-9.526 3.663-6.072 0-9.945-2.093-11.724-6.385h36.115zm-292.165 21.25c7.851 0 14.446-2.617 19.785-7.956 5.443-5.338 8.165-11.933 8.165-19.68 0-7.746-2.722-14.236-8.165-19.575-5.339-5.339-11.934-8.06-19.785-8.06-7.746 0-14.341 2.721-19.784 8.06-5.444 5.339-8.166 11.829-8.166 19.575 0 7.747 2.722 14.342 8.166 19.68 5.443 5.339 12.038 7.956 19.784 7.956zm60.924 0c10.364 0 19.262-5.234 23.868-13.608l-14.865-8.584c-1.78 3.454-4.815 5.234-9.107 5.234-5.862 0-10.259-4.397-10.259-10.678 0-6.28 4.397-10.677 10.259-10.677 4.187 0 7.223 1.675 9.107 5.129l14.865-8.584c-4.606-8.269-13.504-13.503-23.868-13.503-7.955 0-14.55 2.617-19.889 7.955-5.339 5.339-7.956 11.829-7.956 19.68 0 7.851 2.617 14.342 7.956 19.68 5.339 5.339 11.934 7.956 19.889 7.956zm80.5-1.465h-17.377v-5.234c-3.14 4.501-7.956 6.699-14.551 6.699-11.305 0-19.261-7.956-19.261-22.506v-31.3h17.377v29.101c0 5.444 3.141 8.27 7.851 8.27 5.444 0 8.584-3.35 8.584-9.526v-27.845h17.377v52.341zm241.08-52.341h10.887v16.644h-10.887v15.179c0 4.606 3.036 5.234 10.887 4.815v15.703c-10.363 1.256-17.691.314-21.983-2.827-4.187-3.245-6.281-9.002-6.281-17.272v-15.598h-7.851v-16.644h7.851v-9.421l17.377-5.234v14.655zm-451.488 52.341h-29.835v-73.277h29.835c10.154 0 18.528 3.559 25.332 10.573 6.805 7.013 10.259 15.702 10.259 26.065 0 10.364-3.454 19.157-10.259 26.17-6.804 7.014-15.178 10.469-25.332 10.469zm237.834 0h-17.377v-52.341h17.377v4.92c3.246-4.292 7.956-6.385 14.132-6.385 5.967 0 10.468 2.198 13.4 6.699 3.663-4.501 8.688-6.699 15.178-6.699 12.143 0 19.68 8.269 19.68 21.773v32.033h-17.481v-30.044c0-4.92-2.199-7.327-6.491-7.327-4.71 0-7.223 3.349-7.223 8.793v28.578h-17.377v-30.044c0-4.92-2.198-7.327-6.595-7.327-4.71 0-7.223 3.349-7.223 8.793v28.578zm148.857 0h-17.377v-52.341h17.377v5.234c3.14-4.501 7.955-6.699 14.55-6.699 11.306 0 19.262 7.955 19.262 22.506v31.3h-17.377v-29.102c0-5.443-3.141-8.269-7.851-8.269-5.444 0-8.584 3.349-8.584 9.525v27.846zm172.933-17.901c-1.989-2.093-3.036-4.815-3.036-8.27 0-3.454 1.047-6.176 3.036-8.269 1.988-2.094 4.71-3.141 7.955-3.141s5.967 1.047 7.956 3.141c1.989 2.093 3.036 4.815 3.036 8.269 0 3.455-1.047 6.177-3.036 8.27-1.989 2.094-4.711 3.141-7.956 3.141s-5.967-1.047-7.955-3.141zm-490.64 2.617c-5.967 0-10.468-4.501-10.468-10.887 0-6.385 4.501-10.886 10.468-10.886 6.176 0 10.573 4.501 10.573 10.886 0 6.386-4.397 10.887-10.573 10.887zm-68.984-39.883h-10.573v37.057h10.573c5.129 0 9.211-1.675 12.457-5.025 3.245-3.454 4.815-7.956 4.815-13.504 0-5.548-1.57-10.049-4.815-13.399-3.246-3.454-7.328-5.129-12.457-5.129zm-164.543 12.321c4.446.084 8.487 3.863 8.716 8.387.076 1.492-1.135 2.991-2.71 2.653-1.595-.342-1.523-2.479-2.119-3.889-1.458-3.449-8.309-3.315-8.341 1.703 0 0-.055 1.025-.728 1.643-1.337 1.228-3.877.197-3.761-2.11.229-4.508 4.207-8.417 8.943-8.387zm509.466 11.023c-1.361-4.92-4.711-7.328-9.84-7.328-5.339 0-8.793 2.408-10.259 7.328h20.099zm-467.78-11.023c4.448.084 8.487 3.863 8.716 8.387.126 2.489-4.317 4.231-4.495.228-.209-3.665-6.391-5.766-8.293-1.56-.333.737-.386 1.908-.386 1.908-.179 2.274-4.676 3.192-4.485-.576.229-4.52 4.188-8.417 8.943-8.387z" fill="#0080d8" />
  <path d="M52.618 143.958h-6.173c-1.572-.065-2.037-2.916 0-3h6.173v3zm20.071 0h-6.571v-3h6.571l.124.005c.921.115 1.084.514 1.25.892.391.893-.132 2.009-1.374 2.103z" fill="#1a9aec" />
  <defs>
    <linearGradient id="a" x2="1" gradientUnits="userSpaceOnUse" gradientTransform="matrix(0 146.607 -146.607 0 101.571 0)">
      <stop offset="0" stop-color="#9ae6ff" />
      <stop offset="1" stop-color="#61d8ff" />
    </linearGradient>
    <linearGradient id="b" x2="1" gradientUnits="userSpaceOnUse" gradientTransform="matrix(37.148 37.148 -37.148 37.148 0 0)">
      <stop offset="0" stop-color="#61d8ff" />
      <stop offset="1" stop-color="#34b4ff" />
    </linearGradient>
  </defs>
</svg>