<svg width="250" height="50" viewBox="0 0 250 50" xmlns="http://www.w3.org/2000/svg" fill-rule="evenodd" clip-rule="evenodd"><path d="M247.904 38.898c1.519.206 2.363 2.215 1.263 3.365-.361.378-.641.58-1.441.616h-36.448c-1.585-.07-2.613-2.149-1.442-3.372.361-.378.64-.581 1.442-.617h36.448l.178.008zm-213.701-38.604c1.377 0 2.494 1.117 2.494 2.493v39.765c0 1.376-1.117 2.493-2.494 2.493h-31.377c-1.377 0-2.494-1.117-2.494-2.493v-30.567l11.693-11.691h22.178z" fill="#6ceca1"/><path d="M12.025 9.492c-.001 1.376-1.118 2.493-2.495 2.493h-9.198l11.693-11.691-.001 9.198h.001z" fill="#19bf81"/><path d="M242.521 17.791c-1.939 0-3.985.754-5.601 2.443l-.359-1.114c-.287-.862-.648-1.042-2.012-1.042-1.544 0-1.867.216-1.867 1.293v24.347c0 1.149.646 1.293 2.513 1.293 1.869 0 2.515-.144 2.515-1.293v-8.654c1.293 1.078 3.088 1.689 4.775 1.689 4.166 0 7.182-2.587 7.182-9.48 0-6.895-2.981-9.482-7.146-9.482zm-23.162 19.033c6.177 0 9.948-3.232 9.948-11.42v-13.645c0-1.15-.646-1.294-2.621-1.294-2.012 0-2.658.144-2.658 1.294v13.43c0 5.1-1.652 7.038-4.669 7.038-3.052 0-4.704-1.938-4.704-7.038v-13.43c0-1.15-.646-1.294-2.621-1.294-2.012 0-2.658.144-2.658 1.294v13.645c0 8.188 3.771 11.42 9.983 11.42zm-138.218-.035c5.207 0 8.799-2.982 8.799-9.624 0-6.644-3.52-9.41-8.799-9.41-5.242 0-8.761 2.946-8.761 9.41 0 6.858 3.519 9.624 8.761 9.624zm19.105 0c-5.136 0-8.69-2.766-8.69-9.516 0-6.716 3.556-9.518 8.69-9.518 1.761 0 3.412.288 4.597.718 1.149.431 1.723.898 1.723 2.084 0 1.221-.646 2.442-1.364 2.442-.61 0-1.795-1.185-4.382-1.185-2.441 0-4.021 1.185-4.021 5.459 0 4.308 1.58 5.457 4.057 5.457 2.659 0 3.987-1.221 4.597-1.221.718 0 1.365 1.221 1.365 2.406s-.611 1.687-1.616 2.084c-1.185.466-2.836.79-4.956.79zm71.928-5.316c.718 0 1.364 1.257 1.364 2.406 0 1.221-.61 1.723-1.615 2.084-1.185.431-2.91.826-5.064.826-5.852 0-9.588-2.659-9.588-9.552 0-6.572 3.375-9.482 8.978-9.482 5.17 0 7.648 2.551 7.648 5.962 0 3.771-3.159 5.566-8.007 5.566-1.149 0-2.227-.107-3.304-.323.43 2.98 1.939 3.77 4.273 3.77 3.34 0 4.703-1.257 5.314-1.257h.001zm23.164-9.587c-.863 0-1.115-.431-1.115-1.616 0-1.079.144-1.402.754-1.545l1.903-.467.826-3.231c.18-.754.576-.97 2.012-.97 1.4 0 1.975.216 1.975 1.293v2.8h4.165c.861 0 1.041.467 1.041 1.867 0 1.402-.18 1.869-1.041 1.869h-4.165v7.972c0 2.082.79 2.693 2.369 2.693 1.078 0 1.796-.395 2.191-.395.611 0 .897 1.149.897 2.046 0 1.185-.359 1.725-1.364 2.048-1.006.323-2.047.503-3.411.503-3.483 0-5.71-1.438-5.71-5.567v-9.3h-1.329.002zm-72.934-3.808c-1.867 0-2.513.144-2.513 1.293v9.876c0 .754-.251 1.365-.682 1.831-.754.79-1.867 1.329-2.98 1.329-1.832 0-2.407-1.149-2.407-2.693v-10.343c0-1.149-.647-1.293-2.514-1.293-1.867 0-2.513.144-2.513 1.293v11.241c0 3.806 1.795 6.141 5.926 6.141 1.831 0 4.2-.862 5.888-2.73l.431 1.364c.287.899.646 1.078 2.01 1.078 1.582 0 1.869-.215 1.869-1.329v-15.765c0-1.149-.611-1.293-2.515-1.293zm26.718-.251c3.986.001 5.781 2.299 5.781 6.105v11.24c0 1.15-.646 1.293-2.513 1.293-1.868 0-2.514-.143-2.514-1.293v-10.342c0-1.544-.538-2.693-2.227-2.693-.898 0-1.975.395-2.837 1.328-.43.467-.682 1.078-.682 1.796v9.911c0 1.15-.646 1.293-2.513 1.293s-2.513-.143-2.513-1.293v-10.342c0-1.544-.504-2.693-2.228-2.693-.861 0-1.975.395-2.836 1.364-.395.431-.646 1.042-.646 1.76v9.911c0 1.15-.647 1.293-2.515 1.293-1.867 0-2.513-.143-2.513-1.293v-15.801c0-1.077.538-1.293 1.867-1.293 1.328 0 1.723.216 2.01 1.042l.504 1.329c1.688-1.832 3.986-2.622 5.601-2.622 2.874 0 4.382 1.185 5.1 2.658 1.688-1.832 4.021-2.658 5.674-2.658zm37.418 0c4.094.001 5.925 2.299 5.925 6.105v11.24c0 1.15-.646 1.293-2.513 1.293-1.868 0-2.515-.143-2.515-1.293v-10.342c0-1.544-.574-2.693-2.405-2.693-1.113 0-2.298.539-3.053 1.4-.395.431-.683 1.006-.683 1.724v9.911c0 1.15-.646 1.293-2.513 1.293s-2.513-.143-2.513-1.293v-15.801c0-1.077.538-1.293 1.867-1.293 1.328 0 1.723.216 2.01 1.042l.503 1.365c1.724-1.832 4.059-2.658 5.89-2.658zm-128.127-7.29c7.865 0 12.173 3.52 12.173 12.928 0 9.409-4.308 12.929-12.173 12.929h-7.289c-.826 0-1.293-.467-1.293-1.294v-23.269c0-.826.467-1.294 1.293-1.294h7.289zm22.731 22.373c2.083 0 3.555-1.113 3.555-5.745 0-4.597-1.472-5.531-3.555-5.531s-3.519.934-3.519 5.531c0 4.632 1.436 5.745 3.519 5.745zm159.98-.252c-1.221 0-2.262-.718-2.874-1.544-.395-.538-.646-1.184-.646-3.016v-1.651c0-1.833.251-2.515.646-3.017.612-.826 1.653-1.544 2.874-1.544 1.831 0 3.267.79 3.267 5.387 0 4.595-1.436 5.385-3.267 5.385zm-182.675-.538c4.524 0 6.788-2.155 6.788-8.655s-2.264-8.654-6.788-8.654h-3.304v17.309h3.304zm107.659-10.701c1.759 0 2.872.718 2.872 2.262s-1.077 2.334-3.806 2.334c-.682 0-1.581-.036-2.658-.18.251-3.554 1.653-4.416 3.592-4.416zm-158.72 18.972l.246.046 5.475 1.379c.63.204 1.069.778 1.096 1.442v3.565c-.027.661-.464 1.238-1.096 1.442l-5.475 1.38c-.373.086-.445.064-.619.037-.701-.104-1.245-.748-1.276-1.48v-6.323c.036-.854.764-1.543 1.649-1.488zm22.551-.007c.771.084 1.365.722 1.397 1.494v6.325c-.04.955-.79 1.699-1.893 1.443l-5.192-1.296c-.631-.204-1.07-.778-1.097-1.443v-3.733c.027-.662.466-1.239 1.097-1.441l5.192-1.297c.086-.02.177-.058.496-.052zm-11.205 1.08c1.633.013 3.533.149 3.598 1.704v3.746c-.081 1.95-3.622 2.014-6.071 1.474 0 0-1.191-.427-1.235-1.474v-3.746c.054-1.269 1.665-1.664 3.413-1.703l.295-.001zm5.089-14.541c1.689.12 1.963 2.396.531 4.354-2.976 4.062-10.527 3.664-12.582-1.673-.565-1.471 1.018-3.591 2.622-2.295.571.458.672 1.324 1.156 1.96 1.607 2.106 5.6 1.645 6.515-1.093 0 0 .555-1.227 1.674-1.256l.084.003zm-10.375-7.694c1.787.054 3.592 1.379 3.817 3.107.117.905-.582 1.838-1.51 1.958-.828.108-1.565-.476-1.913-1.261-.179-.384-.821-.392-1 .125 0 0-.526 1.027-1.43 1.139-1.427.175-2.48-1.631-1.404-3.261.743-1.125 2.05-1.822 3.44-1.807zm10.489 0c1.789.054 3.593 1.379 3.817 3.107.213 1.64-2.447 2.898-3.422.697-.179-.384-.821-.392-1 .125 0 0-.199.463-.49.718-1.28 1.12-3.906-.473-2.343-2.84.742-1.125 2.049-1.822 3.438-1.807z" fill="#0d9e74"/></svg>